<?xml version="1.0" encoding="UTF-8"?>
<!DOCTYPE svg PUBLIC "-//W3C//DTD SVG 1.1//EN" "http://www.w3.org/Graphics/SVG/1.1/DTD/svg11.dtd">
<svg xmlns="http://www.w3.org/2000/svg" version="1.1" width="406px" height="87px" style="shape-rendering:geometricPrecision; text-rendering:geometricPrecision; image-rendering:optimizeQuality; fill-rule:evenodd; clip-rule:evenodd" xmlns:xlink="http://www.w3.org/1999/xlink">
<g><path style="opacity:1" fill="#5bb4ab" d="M 79.5,24.5 C 78.5489,25.9187 78.2155,27.5853 78.5,29.5C 75.1007,23.5963 70.7673,18.4297 65.5,14C 62.5875,12.6274 59.7542,11.1274 57,9.5C 57.8291,12.8516 58.9958,16.1849 60.5,19.5C 58.5776,20.96 57.9109,22.6267 58.5,24.5C 58.5,23.8333 58.1667,23.5 57.5,23.5C 56.3899,15.9261 52.3899,10.5927 45.5,7.5C 43.3904,8.05435 41.3904,8.88769 39.5,10C 37.3503,13.1467 35.3503,16.3133 33.5,19.5C 33.6567,18.1266 33.49,16.7932 33,15.5C 32.6174,16.056 32.1174,16.3893 31.5,16.5C 32.086,14.1602 33.086,11.9935 34.5,10C 24.6399,13.0162 17.3065,19.1829 12.5,28.5C 12.7148,26.8212 12.0481,25.8212 10.5,25.5C 21.3304,6.82322 37.3304,0.323222 58.5,6C 67.87,9.54019 74.87,15.7069 79.5,24.5 Z M 57.5,23.5 C 49.0223,23.0316 40.6889,22.8649 32.5,23C 33.3366,21.9887 33.67,20.8221 33.5,19.5C 35.3503,16.3133 37.3503,13.1467 39.5,10C 41.3904,8.88769 43.3904,8.05435 45.5,7.5C 52.3899,10.5927 56.3899,15.9261 57.5,23.5 Z"/></g>
<g><path style="opacity:0.793" fill="#fdfdfd" d="M 342.5,18.5 C 343.376,18.3691 344.043,18.7025 344.5,19.5C 346.804,26.6147 350.137,33.1147 354.5,39C 350.833,39.6667 347.167,39.6667 343.5,39C 346.297,36.2423 345.631,34.7423 341.5,34.5C 337.369,34.7423 336.703,36.2423 339.5,39C 334.5,39.6667 329.5,39.6667 324.5,39C 322.873,36.2458 321.373,33.4125 320,30.5C 319.013,33.6967 319.513,36.5301 321.5,39C 309.127,39.8152 298.793,39.6486 290.5,38.5C 290.5,32.5 290.5,26.5 290.5,20.5C 298.793,19.3514 309.127,19.1848 321.5,20C 319.709,22.1062 319.042,24.6062 319.5,27.5C 320.5,27.5 321.5,27.5 322.5,27.5C 322.388,21.2765 325.388,18.6098 331.5,19.5C 331.5,21.1667 331.5,22.8333 331.5,24.5C 330.167,24.5 328.833,24.5 327.5,24.5C 327.766,22.6526 327.432,21.986 326.5,22.5C 325.248,24.7354 324.748,27.0687 325,29.5C 326.667,32.1667 328.333,34.8333 330,37.5C 331.049,38.5171 332.216,38.6838 333.5,38C 337.171,31.8238 340.171,25.3238 342.5,18.5 Z M 296.5,20.5 C 298.75,20.1814 300.75,20.6814 302.5,22C 300.542,24.7482 298.709,27.5815 297,30.5C 296.502,27.1832 296.335,23.8499 296.5,20.5 Z M 308.5,20.5 C 310.144,20.2865 311.644,20.6198 313,21.5C 313.667,26.8333 313.667,32.1667 313,37.5C 311.333,38.8333 309.667,38.8333 308,37.5C 307.215,31.7507 307.382,26.084 308.5,20.5 Z M 301.5,27.5 C 302.641,30.6399 302.808,33.9733 302,37.5C 300.301,38.4061 298.467,38.7394 296.5,38.5C 297.681,34.6401 299.348,30.9734 301.5,27.5 Z M 340.5,28.5 C 342.121,28.7869 343.121,29.7869 343.5,31.5C 342.167,32.8333 340.833,32.8333 339.5,31.5C 340.127,30.5832 340.461,29.5832 340.5,28.5 Z"/></g>
<g><path style="opacity:0.699" fill="#fdfdfd" d="M 102.5,19.5 C 106.015,19.7121 109.348,19.7121 112.5,19.5C 113.833,21.8333 113.833,24.1667 112.5,26.5C 110.651,21.8966 107.651,20.7299 103.5,23C 106.233,25.7844 109.399,27.9511 113,29.5C 115.335,33.1547 114.835,36.3214 111.5,39C 107.664,39.3057 103.997,39.4724 100.5,39.5C 99.1667,36.8333 99.1667,34.1667 100.5,31.5C 101.926,35.9347 104.926,37.9347 109.5,37.5C 109.762,36.0222 109.429,34.6888 108.5,33.5C 102.669,31.8677 99.8352,28.2011 100,22.5C 101.045,21.6266 101.878,20.6266 102.5,19.5 Z"/></g>
<g><path style="opacity:0.699" fill="#fdfdfd" d="M 119.5,19.5 C 123.015,19.7121 126.348,19.7121 129.5,19.5C 130.833,21.8333 130.833,24.1667 129.5,26.5C 127.651,21.8966 124.651,20.7299 120.5,23C 123.233,25.7844 126.399,27.9511 130,29.5C 132.335,33.1547 131.835,36.3214 128.5,39C 124.664,39.3057 120.997,39.4724 117.5,39.5C 116.167,36.8333 116.167,34.1667 117.5,31.5C 118.926,35.9347 121.926,37.9347 126.5,37.5C 126.762,36.0222 126.429,34.6888 125.5,33.5C 119.669,31.8677 116.835,28.2011 117,22.5C 118.045,21.6266 118.878,20.6266 119.5,19.5 Z"/></g>
<g><path style="opacity:0.77" fill="#fdfefe" d="M 131.5,20.5 C 136.49,19.1721 139.49,19.1721 140.5,20.5C 140.5,26.1667 140.5,31.8333 140.5,37.5C 145.133,38.5418 148.299,36.8751 150,32.5C 150.497,34.8098 150.663,37.1432 150.5,39.5C 144.158,39.6662 137.825,39.4995 131.5,39C 132.416,38.6258 133.25,38.1258 134,37.5C 134.667,32.1667 134.667,26.8333 134,21.5C 133.329,20.7476 132.496,20.4142 131.5,20.5 Z"/></g>
<g><path style="opacity:0.733" fill="#fdfdfd" d="M 164.5,19.5 C 168.954,19.7242 173.288,19.7242 177.5,19.5C 179.117,27.2529 177.783,28.0862 173.5,22C 167.376,20.7305 164.376,23.2305 164.5,29.5C 165.74,38.0816 169.907,39.7483 177,34.5C 177.684,35.7839 177.517,36.9505 176.5,38C 164.18,42.4467 158.347,38.28 159,25.5C 160.36,22.9774 162.193,20.9774 164.5,19.5 Z"/></g>
<g><path style="opacity:0.757" fill="#fdfefe" d="M 179.5,20.5 C 185.31,19.5104 191.31,19.1771 197.5,19.5C 197.972,25.636 196.639,26.4694 193.5,22C 191.866,21.5065 190.199,21.3398 188.5,21.5C 188.237,27.8948 189.404,28.5615 192,23.5C 192.667,27.1667 192.667,30.8333 192,34.5C 191.417,32.9984 190.584,31.6651 189.5,30.5C 188.526,32.7427 188.192,35.076 188.5,37.5C 193.133,38.5418 196.299,36.8751 198,32.5C 198.687,34.5675 198.52,36.5675 197.5,38.5C 190.45,39.7751 185.45,39.7751 182.5,38.5C 182.666,32.8236 182.499,27.1569 182,21.5C 181.329,20.7476 180.496,20.4142 179.5,20.5 Z"/></g>
<g><path style="opacity:0.819" fill="#fdfefd" d="M 199.5,20.5 C 204.316,19.3503 209.316,19.1837 214.5,20C 219.217,26.8605 217.217,30.6938 208.5,31.5C 208.042,34.3938 208.709,36.8938 210.5,39C 205.557,39.9612 202.89,39.7945 202.5,38.5C 202.5,32.5 202.5,26.5 202.5,20.5C 201.5,20.5 200.5,20.5 199.5,20.5 Z M 208.5,21.5 C 210.722,21.5587 211.722,22.7253 211.5,25C 211.612,26.6624 210.946,27.8291 209.5,28.5C 208.526,26.2573 208.192,23.924 208.5,21.5 Z"/></g>
<g><path style="opacity:0.788" fill="#fefefe" d="M 219.5,19.5 C 225.5,19.5 231.5,19.5 237.5,19.5C 237.662,21.5273 237.495,23.5273 237,25.5C 236.125,22.7854 234.292,21.4521 231.5,21.5C 231.5,27.1667 231.5,32.8333 231.5,38.5C 229.5,39.8333 227.5,39.8333 225.5,38.5C 225.5,32.8333 225.5,27.1667 225.5,21.5C 222.708,21.4521 220.875,22.7854 220,25.5C 219.505,23.5273 219.338,21.5273 219.5,19.5 Z"/></g>
<g><path style="opacity:0.843" fill="#fdfdfd" d="M 238.5,20.5 C 245.989,19.3443 253.655,19.1777 261.5,20C 260.584,20.3742 259.75,20.8742 259,21.5C 258.333,26.8333 258.333,32.1667 259,37.5C 259.75,38.1258 260.584,38.6258 261.5,39C 252.781,39.8186 246.114,39.6519 241.5,38.5C 241.5,32.5 241.5,26.5 241.5,20.5C 240.5,20.5 239.5,20.5 238.5,20.5 Z M 247.5,20.5 C 249.75,20.1814 251.75,20.6814 253.5,22C 251.542,24.7482 249.709,27.5815 248,30.5C 247.502,27.1832 247.335,23.8499 247.5,20.5 Z M 252.5,27.5 C 253.641,30.6399 253.808,33.9733 253,37.5C 251.301,38.4061 249.467,38.7394 247.5,38.5C 248.681,34.6401 250.348,30.9734 252.5,27.5 Z"/></g>
<g><path style="opacity:0.786" fill="#fdfefe" d="M 268.5,20.5 C 271.976,19.3567 275.642,19.1901 279.5,20C 278.692,20.3076 278.025,20.8076 277.5,21.5C 285.701,22.5695 288.201,26.9029 285,34.5C 282.51,35.743 280.01,36.9096 277.5,38C 278.167,38.3333 278.833,38.6667 279.5,39C 275.833,39.6667 272.167,39.6667 268.5,39C 269.5,38.6667 270.5,38.3333 271.5,38C 269.167,37 266.833,36 264.5,35C 260.145,27.1681 262.478,22.6681 271.5,21.5C 270.675,20.6143 269.675,20.281 268.5,20.5 Z M 269.5,24.5 C 270.777,25.6936 271.444,27.3603 271.5,29.5C 271.158,35.8406 269.824,36.0073 267.5,30C 268.077,28.0999 268.744,26.2666 269.5,24.5 Z M 277.5,24.5 C 278.496,24.4142 279.329,24.7476 280,25.5C 280.667,28.1667 280.667,30.8333 280,33.5C 279.586,33.9574 279.086,34.2907 278.5,34.5C 277.513,31.2317 277.18,27.8984 277.5,24.5 Z"/></g>
<g><path style="opacity:0.788" fill="#fefefe" d="M 352.5,19.5 C 358.5,19.5 364.5,19.5 370.5,19.5C 370.662,21.5273 370.495,23.5273 370,25.5C 369.125,22.7854 367.292,21.4521 364.5,21.5C 364.5,27.1667 364.5,32.8333 364.5,38.5C 362.5,39.8333 360.5,39.8333 358.5,38.5C 358.5,32.8333 358.5,27.1667 358.5,21.5C 355.708,21.4521 353.875,22.7854 353,25.5C 352.505,23.5273 352.338,21.5273 352.5,19.5 Z"/></g>
<g><path style="opacity:0.801" fill="#fdfefd" d="M 389.5,38.5 C 383.551,39.5793 377.551,39.746 371.5,39C 372.416,38.6258 373.25,38.1258 374,37.5C 374.499,31.8431 374.666,26.1764 374.5,20.5C 374.89,19.2055 377.557,19.0388 382.5,20C 380.709,22.1062 380.042,24.6062 380.5,27.5C 389.143,26.9239 392.143,30.5905 389.5,38.5 Z M 380.5,30.5 C 384.264,31.385 385.264,33.5516 383.5,37C 382.552,37.4828 381.552,37.6495 380.5,37.5C 380.5,35.1667 380.5,32.8333 380.5,30.5 Z"/></g>
<g><path style="opacity:0.901" fill="#fcfdfd" d="M 389.5,38.5 C 390.496,38.5858 391.329,38.2524 392,37.5C 392.667,32.1667 392.667,26.8333 392,21.5C 391.25,20.8742 390.416,20.3742 389.5,20C 393.167,19.3333 396.833,19.3333 400.5,20C 399.22,22.8939 398.554,26.0606 398.5,29.5C 398.554,32.9394 399.22,36.1061 400.5,39C 396.642,39.8099 392.976,39.6433 389.5,38.5 Z"/></g>
<g><path style="opacity:1" fill="#51b0a6" d="M 33.5,19.5 C 33.67,20.8221 33.3366,21.9887 32.5,23C 40.6889,22.8649 49.0223,23.0316 57.5,23.5C 58.1667,23.5 58.5,23.8333 58.5,24.5C 57.9109,22.6267 58.5776,20.96 60.5,19.5C 61.1589,21.1379 61.8256,22.8045 62.5,24.5C 67.8139,26.266 72.8139,28.5993 77.5,31.5C 77.7828,32.2891 78.2828,32.9558 79,33.5C 79.7401,32.2506 79.5735,31.2506 78.5,30.5C 78.5,30.1667 78.5,29.8333 78.5,29.5C 78.2155,27.5853 78.5489,25.9187 79.5,24.5C 84.2882,32.8835 85.6216,41.8835 83.5,51.5C 81.6885,53.3854 80.5218,55.7187 80,58.5C 79.2828,57.9558 78.7828,57.2891 78.5,56.5C 79.0143,53.7564 79.0143,51.0897 78.5,48.5C 79.1408,47.5178 79.8075,46.5178 80.5,45.5C 75.2079,44.5052 69.8746,44.1718 64.5,44.5C 64.4476,48.1981 64.1143,51.8648 63.5,55.5C 62.9569,55.56 62.6236,55.8933 62.5,56.5C 64.6551,57.0014 66.3218,58.0014 67.5,59.5C 65.8053,60.0114 64.1386,60.6781 62.5,61.5C 61.0417,66.4146 59.0417,71.0813 56.5,75.5C 55.7109,75.7828 55.0442,76.2828 54.5,77C 56.744,77.0496 58.4107,77.8829 59.5,79.5C 50.0634,83.448 40.73,83.448 31.5,79.5C 31.5569,78.391 31.8902,77.391 32.5,76.5C 33.2389,76.631 33.9056,76.4643 34.5,76C 32.1358,72.4414 30.4691,68.608 29.5,64.5C 29.8432,62.5168 29.1765,61.1834 27.5,60.5C 24.2154,60.0719 21.2154,59.0719 18.5,57.5C 18.0472,56.5416 17.3805,55.7083 16.5,55C 17.448,54.5172 18.448,54.3505 19.5,54.5C 22.1595,55.3471 24.8262,55.8471 27.5,56C 26.5399,52.27 26.2065,48.4367 26.5,44.5C 21.1254,44.1718 15.7921,44.5052 10.5,45.5C 11.2599,47.3604 12.2599,49.027 13.5,50.5C 12.1266,50.3433 10.7932,50.51 9.5,51C 10.1667,51.3333 10.8333,51.6667 11.5,52C 11.0853,54.0263 10.0853,55.5263 8.5,56.5C 6.53813,49.3242 6.03813,41.9909 7,34.5C 7.50531,31.135 8.67197,28.135 10.5,25.5C 12.0481,25.8212 12.7148,26.8212 12.5,28.5C 12.3505,29.552 12.5172,30.552 13,31.5C 17.6992,28.2315 22.8659,26.2315 28.5,25.5C 28.5275,22.0836 29.5275,19.0836 31.5,16.5C 32.1174,16.3893 32.6174,16.056 33,15.5C 33.49,16.7932 33.6567,18.1266 33.5,19.5 Z M 50.5,26.5 C 52.9686,27.3171 55.6353,27.8171 58.5,28C 59.1094,29.9483 59.776,31.7816 60.5,33.5C 60.6641,36.1873 60.4974,38.854 60,41.5C 59.7184,37.5118 58.8851,33.6785 57.5,30C 48.6253,26.346 40.1253,26.846 32,31.5C 31.8236,34.8818 31.3236,38.2152 30.5,41.5C 30.3114,38.0149 30.3114,34.3482 30.5,30.5C 31.4013,29.7095 32.0679,28.7095 32.5,27.5C 38.491,27.0343 44.491,26.701 50.5,26.5 Z M 24.5,29.5 C 25.552,29.3505 26.552,29.5172 27.5,30C 26.5399,33.73 26.2065,37.5633 26.5,41.5C 21.1254,41.8282 15.7921,41.4948 10.5,40.5C 11.1279,38.7419 12.1279,37.2419 13.5,36C 17.2299,33.807 20.8965,31.6404 24.5,29.5 Z M 63.5,29.5 C 70.8795,30.8526 76.5461,34.6859 80.5,41C 75.1771,41.4994 69.8437,41.666 64.5,41.5C 64.3542,37.4809 64.0209,33.4809 63.5,29.5 Z M 44.5,30.5 C 48.0712,31.6422 51.7379,32.3089 55.5,32.5C 55.5,35.5 55.5,38.5 55.5,41.5C 51.2411,41.8981 49.4078,39.8981 50,35.5C 43.3381,31.6353 39.8381,33.6353 39.5,41.5C 37.8333,41.5 36.1667,41.5 34.5,41.5C 34.9629,38.5176 35.2962,35.5176 35.5,32.5C 38.7814,32.5797 41.7814,31.913 44.5,30.5 Z M 44.5,36.5 C 48.7084,38.9257 48.375,40.259 43.5,40.5C 43.4326,39.0413 43.7659,37.7079 44.5,36.5 Z M 19.5,54.5 C 17.7952,52.8079 15.7952,51.4746 13.5,50.5C 12.2599,49.027 11.2599,47.3604 10.5,45.5C 15.7921,44.5052 21.1254,44.1718 26.5,44.5C 26.2065,48.4367 26.5399,52.27 27.5,56C 24.8262,55.8471 22.1595,55.3471 19.5,54.5 Z M 31.5,46.5 C 33.2769,53.1072 37.6102,57.2739 44.5,59C 42.8659,59.4935 41.1992,59.6602 39.5,59.5C 36.9455,58.612 34.2788,58.2786 31.5,58.5C 30.9786,54.1391 30.312,49.8058 29.5,45.5C 30.6939,44.3296 31.3605,44.663 31.5,46.5 Z M 55.5,44.5 C 54.3961,49.9487 51.0628,53.6153 45.5,55.5C 40.84,54.0217 37.1733,51.355 34.5,47.5C 34.5,46.5 34.5,45.5 34.5,44.5C 35.8333,44.5 37.1667,44.5 38.5,44.5C 38.5,46.5 38.5,48.5 38.5,50.5C 42.8333,50.5 47.1667,50.5 51.5,50.5C 51.5,48.5 51.5,46.5 51.5,44.5C 52.8333,44.5 54.1667,44.5 55.5,44.5 Z M 49.5,59.5 C 48.448,59.6495 47.448,59.4828 46.5,59C 49.6612,57.5869 52.6612,55.9203 55.5,54C 57.1412,52.871 58.1412,51.371 58.5,49.5C 59.3019,48.0484 59.8019,46.3817 60,44.5C 60.5772,48.888 60.2439,53.2214 59,57.5C 55.8826,58.3038 52.716,58.9705 49.5,59.5 Z M 78.5,48.5 C 74.136,52.8579 69.136,55.1912 63.5,55.5C 64.1143,51.8648 64.4476,48.1981 64.5,44.5C 69.8746,44.1718 75.2079,44.5052 80.5,45.5C 79.8075,46.5178 79.1408,47.5178 78.5,48.5 Z M 54.5,62.5 C 55.791,62.2627 56.791,62.596 57.5,63.5C 48.9089,83.6219 40.5756,83.4553 32.5,63C 39.8493,63.5021 47.1826,63.3354 54.5,62.5 Z"/></g>
<g><path style="opacity:0.906" fill="#77c2ba" d="M 50.5,26.5 C 53.5184,26.3354 56.5184,26.502 59.5,27C 60.4231,29.0408 60.7564,31.2075 60.5,33.5C 59.776,31.7816 59.1094,29.9483 58.5,28C 55.6353,27.8171 52.9686,27.3171 50.5,26.5 Z"/></g>
<g><path style="opacity:0.227" fill="#ceeae7" d="M 32.5,27.5 C 32.0679,28.7095 31.4013,29.7095 30.5,30.5C 30.2852,28.8212 30.9519,27.8212 32.5,27.5 Z"/></g>
<g><path style="opacity:0.129" fill="#d2ecea" d="M 78.5,30.5 C 79.5735,31.2506 79.7401,32.2506 79,33.5C 78.2828,32.9558 77.7828,32.2891 77.5,31.5C 78.1667,31.5 78.5,31.1667 78.5,30.5 Z"/></g>
<g><path style="opacity:1" fill="#6bb9b0" d="M 100.5,45.5 C 100.833,44.8333 101.167,44.1667 101.5,43.5C 200.821,42.1689 300.154,42.1689 399.5,43.5C 399.5,44.5 399.5,45.5 399.5,46.5C 302.179,47.6502 204.846,47.8169 107.5,47C 104.964,46.8138 102.631,46.3138 100.5,45.5 Z"/></g>
<g><path style="opacity:0.227" fill="#d0ebe8" d="M 101.5,43.5 C 101.167,44.1667 100.833,44.8333 100.5,45.5C 99.2426,44.3774 99.5759,43.7107 101.5,43.5 Z"/></g>
<g><path style="opacity:1" fill="#6abbb2" d="M 78.5,48.5 C 79.0143,51.0897 79.0143,53.7564 78.5,56.5C 78.631,55.7611 78.4643,55.0944 78,54.5C 74.6756,56.5793 71.1756,58.2459 67.5,59.5C 66.3218,58.0014 64.6551,57.0014 62.5,56.5C 62.6236,55.8933 62.9569,55.56 63.5,55.5C 69.136,55.1912 74.136,52.8579 78.5,48.5 Z"/></g>
<g><path style="opacity:0.481" fill="#fefefe" d="M 169.5,51.5 C 171.604,51.2011 173.604,51.5344 175.5,52.5C 174.5,52.8333 173.5,53.1667 172.5,53.5C 170.97,53.3601 169.97,52.6935 169.5,51.5 Z"/></g>
<g><path style="opacity:0.563" fill="#fdfdfd" d="M 324.5,51.5 C 326.458,51.908 328.458,52.2413 330.5,52.5C 329.5,52.8333 328.5,53.1667 327.5,53.5C 325.97,53.3601 324.97,52.6935 324.5,51.5 Z"/></g>
<g><path style="opacity:0.617" fill="#fdfefe" d="M 174.5,56.5 C 174.5,58.5 174.5,60.5 174.5,62.5C 176.306,59.6618 177.306,59.9952 177.5,63.5C 174.609,64.4025 171.609,64.7359 168.5,64.5C 168.719,65.675 168.386,66.675 167.5,67.5C 164.288,63.6313 161.122,63.6313 158,67.5C 157.517,66.552 157.351,65.552 157.5,64.5C 155.473,64.6621 153.473,64.4955 151.5,64C 152.993,62.8438 152.826,62.0104 151,61.5C 149.174,62.0104 149.007,62.8438 150.5,64C 145.167,64.6667 139.833,64.6667 134.5,64C 135.833,61 135.833,58 134.5,55C 138.5,54.3333 142.5,54.3333 146.5,55C 144.679,57.456 144.012,60.2893 144.5,63.5C 145.675,63.719 146.675,63.3857 147.5,62.5C 148.719,59.3334 150.219,56.3334 152,53.5C 153.565,56.9621 155.398,60.2954 157.5,63.5C 160.793,60.9025 161.126,58.0691 158.5,55C 164.491,54.5005 170.491,54.3338 176.5,54.5C 176.869,56.9935 176.203,57.6602 174.5,56.5 Z M 139.5,55.5 C 141.465,55.9483 141.798,56.9483 140.5,58.5C 139.614,57.675 139.281,56.675 139.5,55.5 Z M 161.5,55.5 C 163.369,57.6353 164.036,60.3019 163.5,63.5C 162.448,63.6495 161.448,63.4828 160.5,63C 161.435,60.6194 161.768,58.1194 161.5,55.5 Z M 166.5,55.5 C 167.748,56.3339 168.415,57.6672 168.5,59.5C 168.167,60.8333 167.833,62.1667 167.5,63.5C 166.52,60.9135 166.187,58.2469 166.5,55.5 Z M 174.5,56.5 C 173.637,57.463 172.97,57.463 172.5,56.5C 173.257,55.2267 173.923,55.2267 174.5,56.5 Z M 139.5,59.5 C 140.586,59.62 141.253,60.2867 141.5,61.5C 141.167,62.1667 140.833,62.8333 140.5,63.5C 139.571,62.3112 139.238,60.9778 139.5,59.5 Z M 174.5,62.5 C 174.44,63.0431 174.107,63.3764 173.5,63.5C 172.417,62.635 172.251,61.635 173,60.5C 173.278,61.4158 173.778,62.0825 174.5,62.5 Z"/></g>
<g><path style="opacity:0.591" fill="#fdfefe" d="M 290.5,53.5 C 292.585,56.8238 294.585,60.3238 296.5,64C 294.5,64.6667 292.5,64.6667 290.5,64C 291.993,62.8438 291.826,62.0104 290,61.5C 288.174,62.0104 288.007,62.8438 289.5,64C 288.167,64.6667 286.833,64.6667 285.5,64C 287.459,60.6164 289.125,57.1164 290.5,53.5 Z"/></g>
<g><path style="opacity:0.624" fill="#fdfefe" d="M 315.5,53.5 C 317.461,56.7374 319.461,60.0707 321.5,63.5C 322.783,60.6281 322.783,57.7947 321.5,55C 328.492,54.5004 335.492,54.3337 342.5,54.5C 342.741,57.999 341.908,58.3323 340,55.5C 339.223,58.4294 339.39,61.2628 340.5,64C 338.5,64.6667 336.5,64.6667 334.5,64C 335.61,61.2628 335.777,58.4294 335,55.5C 333.691,57.8912 332.691,57.8912 332,55.5C 331.013,58.6967 331.513,61.5301 333.5,64C 327.5,64.6667 321.5,64.6667 315.5,64C 316.993,62.8438 316.826,62.0104 315,61.5C 313.174,62.0104 313.007,62.8438 314.5,64C 310.5,64.6667 306.5,64.6667 302.5,64C 299.61,60.5808 299.943,57.5808 303.5,55C 306.146,54.5026 308.813,54.3359 311.5,54.5C 311.688,56.1033 311.188,57.4366 310,58.5C 309.121,55.6537 307.454,54.987 305,56.5C 304.242,58.7695 304.409,60.9361 305.5,63C 307.367,63.7112 308.867,63.2112 310,61.5C 310.333,62.1667 310.667,62.8333 311,63.5C 312.604,60.1792 314.104,56.8458 315.5,53.5 Z M 326.5,55.5 C 328.646,55.6964 328.812,56.6964 327,58.5C 326.517,57.552 326.351,56.552 326.5,55.5 Z M 327.5,60.5 C 328.776,61.3864 328.776,62.3864 327.5,63.5C 326.438,62.5754 326.438,61.5754 327.5,60.5 Z"/></g>
<g><path style="opacity:0.591" fill="#fdfefe" d="M 347.5,53.5 C 349.585,56.8238 351.585,60.3238 353.5,64C 351.5,64.6667 349.5,64.6667 347.5,64C 348.993,62.8438 348.826,62.0104 347,61.5C 345.174,62.0104 345.007,62.8438 346.5,64C 345.167,64.6667 343.833,64.6667 342.5,64C 344.459,60.6164 346.125,57.1164 347.5,53.5 Z"/></g>
<g><path style="opacity:0.653" fill="#fdfefe" d="M 177.5,63.5 C 179.243,62.3591 180.243,60.6924 180.5,58.5C 178.97,58.0611 177.97,56.7277 177.5,54.5C 186.36,54.8116 195.36,54.9783 204.5,55C 202.679,57.456 202.012,60.2893 202.5,63.5C 203.675,63.719 204.675,63.3857 205.5,62.5C 206.719,59.3334 208.219,56.3334 210,53.5C 211.651,56.8022 213.318,60.1356 215,63.5C 215.78,60.7427 216.28,57.9094 216.5,55C 219.5,54.3333 222.5,54.3333 225.5,55C 224.167,58 224.167,61 225.5,64C 220.317,64.1148 214.984,64.1148 209.5,64C 210.993,62.8438 210.826,62.0104 209,61.5C 207.174,62.0104 207.007,62.8438 208.5,64C 197.845,64.4402 187.512,64.2735 177.5,63.5 Z M 192.5,55.5 C 193.8,58.0241 193.8,60.6908 192.5,63.5C 190.812,61.9706 189.479,60.1373 188.5,58C 190.111,57.7098 191.444,56.8765 192.5,55.5 Z M 197.5,55.5 C 199.465,55.9483 199.798,56.9483 198.5,58.5C 197.614,57.675 197.281,56.675 197.5,55.5 Z M 219.5,55.5 C 220.598,56.6009 220.765,57.9343 220,59.5C 218.232,58.3181 218.065,56.9848 219.5,55.5 Z M 197.5,59.5 C 198.586,59.62 199.253,60.2867 199.5,61.5C 199.167,62.1667 198.833,62.8333 198.5,63.5C 197.571,62.3112 197.238,60.9778 197.5,59.5 Z"/></g>
<g><path style="opacity:0.64" fill="#fdfdfd" d="M 237.5,63.5 C 234.865,64.7294 232.199,64.7294 229.5,63.5C 230.391,62.4104 231.391,62.4104 232.5,63.5C 233.754,61.7408 233.421,60.2408 231.5,59C 233.26,58.0347 233.594,56.868 232.5,55.5C 230.633,58.2291 229.633,57.8957 229.5,54.5C 231.833,54.5 234.167,54.5 236.5,54.5C 236.508,57.5448 236.841,60.5448 237.5,63.5 Z"/></g>
<g><path style="opacity:0.691" fill="#fdfefe" d="M 237.5,63.5 C 239.417,60.2826 241.251,56.9492 243,53.5C 244.565,56.9621 246.398,60.2954 248.5,63.5C 249.783,60.6281 249.783,57.7947 248.5,55C 261.162,54.5001 273.829,54.3334 286.5,54.5C 286.741,57.999 285.908,58.3323 284,55.5C 283.223,58.4294 283.39,61.2628 284.5,64C 282.5,64.6667 280.5,64.6667 278.5,64C 279.61,61.2628 279.777,58.4294 279,55.5C 277.684,58.028 276.517,58.028 275.5,55.5C 274.005,58.6447 274.338,61.4781 276.5,64C 272.514,64.4988 268.514,64.6655 264.5,64.5C 264.649,65.552 264.483,66.552 264,67.5C 263.097,66.2986 261.931,65.4652 260.5,65C 254.5,64.6667 248.5,64.3333 242.5,64C 243.993,62.8438 243.826,62.0104 242,61.5C 240.174,62.0104 240.007,62.8438 241.5,64C 239.934,64.765 238.601,64.5983 237.5,63.5 Z M 253.5,55.5 C 254.748,56.3339 255.415,57.6672 255.5,59.5C 255.167,60.8333 254.833,62.1667 254.5,63.5C 253.52,60.9135 253.187,58.2469 253.5,55.5 Z M 258.5,55.5 C 259.748,56.3339 260.415,57.6672 260.5,59.5C 260.167,60.8333 259.833,62.1667 259.5,63.5C 258.52,60.9135 258.187,58.2469 258.5,55.5 Z M 263.5,55.5 C 264.748,56.3339 265.415,57.6672 265.5,59.5C 265.167,60.8333 264.833,62.1667 264.5,63.5C 263.52,60.9135 263.187,58.2469 263.5,55.5 Z M 269.5,55.5 C 271.646,55.6964 271.812,56.6964 270,58.5C 269.517,57.552 269.351,56.552 269.5,55.5 Z M 270.5,60.5 C 271.776,61.3864 271.776,62.3864 270.5,63.5C 269.438,62.5754 269.438,61.5754 270.5,60.5 Z"/></g>
<g><path style="opacity:0.796" fill="#64b8b0" d="M 55.5,44.5 C 55.9724,46.5313 56.9724,48.1979 58.5,49.5C 58.1412,51.371 57.1412,52.871 55.5,54C 52.6612,55.9203 49.6612,57.5869 46.5,59C 47.448,59.4828 48.448,59.6495 49.5,59.5C 46.1667,60.8333 42.8333,60.8333 39.5,59.5C 41.1992,59.6602 42.8659,59.4935 44.5,59C 37.6102,57.2739 33.2769,53.1072 31.5,46.5C 32.2216,46.9175 32.7216,47.5842 33,48.5C 33.3826,47.944 33.8826,47.6107 34.5,47.5C 37.1733,51.355 40.84,54.0217 45.5,55.5C 51.0628,53.6153 54.3961,49.9487 55.5,44.5 Z"/></g>
<g><path style="opacity:0.722" fill="#a7d8d3" d="M 27.5,60.5 C 29.1765,61.1834 29.8432,62.5168 29.5,64.5C 28.6554,63.3285 27.9887,61.9952 27.5,60.5 Z"/></g>
<g><path style="opacity:0.063" fill="#d1ebe9" d="M 54.5,62.5 C 55.7082,61.218 57.0416,61.218 58.5,62.5C 58.3764,63.1067 58.0431,63.44 57.5,63.5C 56.791,62.596 55.791,62.2627 54.5,62.5 Z"/></g>
<g><path style="opacity:1" fill="#5db5ac" d="M 13.5,50.5 C 15.7952,51.4746 17.7952,52.8079 19.5,54.5C 18.448,54.3505 17.448,54.5172 16.5,55C 17.3805,55.7083 18.0472,56.5416 18.5,57.5C 16.5742,56.7577 14.7409,55.7577 13,54.5C 14.2904,61.2135 17.7904,66.7135 23.5,71C 26.5638,72.8588 29.5638,74.6921 32.5,76.5C 31.8902,77.391 31.5569,78.391 31.5,79.5C 20.1667,75.5 12.5,67.8333 8.5,56.5C 10.0853,55.5263 11.0853,54.0263 11.5,52C 10.8333,51.6667 10.1667,51.3333 9.5,51C 10.7932,50.51 12.1266,50.3433 13.5,50.5 Z"/></g>
<g><path style="opacity:1" fill="#66b8b0" d="M 83.5,51.5 C 80.1561,64.8426 72.1561,74.1759 59.5,79.5C 58.4107,77.8829 56.744,77.0496 54.5,77C 55.0442,76.2828 55.7109,75.7828 56.5,75.5C 56.4346,75.9382 56.6012,76.2716 57,76.5C 61.4084,74.4296 65.5751,71.9296 69.5,69C 72.8893,65.031 75.8893,60.8643 78.5,56.5C 78.7828,57.2891 79.2828,57.9558 80,58.5C 80.5218,55.7187 81.6885,53.3854 83.5,51.5 Z"/></g>
</svg>
