<svg xmlns="http://www.w3.org/2000/svg" xmlns:xlink="http://www.w3.org/1999/xlink" width="1080" height="315"><g transform="translate(575.204 29.77)"><use xlink:href="#a" fill="#3CC"/><use xlink:href="#a" fill="url(#b)"/></g><use xlink:href="#c" fill="#FFF" transform="translate(608.941 71.44)"/><use xlink:href="#d" fill="#FFF"/><defs><path id="a" fill-rule="evenodd" d="M498.722 100.712c7.65 10.947 8.42 28.2.3 41.571-7.25 11.942-50.64 57.768-64.76 72.494-12.24 12.791-28.76 25.6-45.02 25.6H48.788C2.776 240.377 0 224.777 0 189.507V46.434C0 10.412 10.631 0 42.052 0h347.19c16.26 0 30.73 8.3 47.35 25.2 14.11 14.341 56.26 67.09 62.13 75.512Z"/><path id="c" fill-rule="evenodd" d="M43.443 13.651v-.942c0-4.6-.386-9.147-7.923-9.147H7.068C.455 3.562.037 7.22.037 12.902v37.81c13.85-19.805 29.207-29.007 43.406-37.06Zm190.872 136.626v-2.03h.02V57.242c0-38.164-16.777-57.244-50.33-57.24a50.17 50.17 0 0 0-26.4 7.217c-7.987 4.814-15.661 11.539-23.022 20.173-3.618-9.383-9.074-16.294-16.368-20.732C110.92 2.222 101.468.003 89.86.002c-13.436 0-29.057 4.707-40.13 13.815C47.255 16.298.03 53.467.03 91.641v58.263c0 1.853-.893 8.883 6.984 8.883h29.62c9.209 0 8.31-6.03 8.31-8.51V56.045c5-6.632 15.216-23.01 31.809-23.01 6.368 0 10.955 2.155 13.759 6.465 2.804 4.31 4.212 11.539 4.224 21.683v73.6H94.7v15.123c0 1.853-.894 8.883 6.98 8.883h29.243c9.214 0 8.315-6.03 8.315-8.51v-2.03h.034v-92.2c5.357-6.632 16.031-23.01 31.8-23.01 6.488 0 11.167 2.155 14.038 6.465 2.87 4.31 4.304 11.539 4.3 21.683v73.6h-.03v15.123c0 1.853-.89 8.883 6.99 8.883h29.63c9.214-.004 8.314-6.036 8.314-8.516Zm163.13-37c-10.53 28.335-35.76 44.17-67.02 44.17-45.28 0-75.19-30.855-75.19-77.132 0-45.719 31.05-78.858 73.78-78.858 42.27 0 70.62 29.438 72.42 76.858.23 6.06-1.54 11.412-9.11 11.412h-96.08c.57 25.428 12.83 39.144 34.47 39.144 13.2 0 21.02-5.691 27.83-16.844 2.96-4.853 9.03-4.583 9.03-4.583h24.75c4.04-.003 5.83 3.945 5.12 5.83v.003Zm-68.43-82.4c-17.96 0-30.49 12.57-32.77 33.15h64.38c-1.71-18.002-11.4-33.15-31.61-33.15Z"/><path id="d" fill-rule="evenodd" d="M176.842 31.082a55.819 55.819 0 0 0-14.542-15.54 71.895 71.895 0 0 0-18.9-9.48 107.105 107.105 0 0 0-23.031-4.785A265.918 265.918 0 0 0 93.418.002h-78.87C7.456.002.022 4.66.022 13.444v127.89c9.99 21.315 29.453 43.944 51.58 54.759v-25.364c0-13.384 10.079-16.374 14.248-16.374h23.32c32.122 0 56.639-6.746 73.551-20.237 16.912-13.472 25.367-33.483 25.367-60.033a94.193 94.193 0 0 0-2.649-22.776 70.919 70.919 0 0 0-8.597-20.227Zm-45.96 65.68a27.63 27.63 0 0 1-11.672 10.963 47.153 47.153 0 0 1-16.872 4.47 222.88 222.88 0 0 1-19.747.854H60.43c-5.421 0-8.828-4.413-8.828-10.923V49.839c0-5.864 3.823-8.324 8.407-8.324H82.59c7.356 0 14.254.212 20.695.637a45.364 45.364 0 0 1 16.77 4.049 25.185 25.185 0 0 1 11.148 10.433c2.684 4.676 4.026 11.276 4.028 19.8 0 8.654-1.45 15.43-4.35 20.329Zm-79.28 107.596c-24.336-9.724-40.651-21.324-51.58-32.824v61.74s-.9 10.069 8.9 10.069H43.33c9.439 0 8.275-10.069 8.275-10.069v-28.916h-.004ZM539.245 67.281h-30.881c-6.276 0-10.411 2.638-12.9 9.54-2.489 6.902-35.221 98.064-35.221 98.064s-31.311-89.28-33.775-96.192c-2.464-6.913-6.51-11.412-13.8-11.412h-28.375c-10.01 0-10.01 7.863-8.769 10.98 1.007 2.52 39.865 109.027 54.665 149.601 3.49 9.58 4.868 12.462 4.976 16.011.108 3.549-3.5 11-5.993 15.276a38.643 38.643 0 0 1-3.929 5.52c29.014-8.687 62.455-40.209 79.748-74.358 17.1-47.591 39.65-110.458 40.628-113.674 1.573-5.21 1.557-9.356-6.374-9.356ZM402.886 273.725a73.581 73.581 0 0 1-8.016-.579c-3.255-.431-9.346.177-9.346 5.511v23.844c0 9.1 4.351 9.707 6.746 10.246a101.079 101.079 0 0 0 21.916 2.118c9.756 0 18.244-1.775 25.466-5.324a61.061 61.061 0 0 0 19.111-14.795 104.868 104.868 0 0 0 14.751-22.56c4.311-8.728 8.449-18.343 12.415-28.845 0 0 1.7-4.746 4.5-12.521-8.518 8.599-48.666 46.67-87.543 42.905Zm-46.375-178.14a41.45 41.45 0 0 0-6.784-10.96 47.477 47.477 0 0 0-9.561-8.2 70.097 70.097 0 0 0-12.09-6.281 90.44 90.44 0 0 0-13.27-4.04 107.6 107.6 0 0 0-15.6-2.235c-5.667-.422-12.037-.635-19.11-.638-46.782 0-73.42 14.785-79.915 44.357-2.112 9.176 6.965 9.715 6.965 9.715h28.779c7.513 0 7.19-2.421 10.836-9.215a20.165 20.165 0 0 1 6.8-9.305c5.523-4.255 13.801-6.383 24.835-6.383 10.616 0 18.328 2.055 23.138 6.167 4.809 4.111 7.639 10.356 8.491 18.736 0 9.717-3.031 16.2-14.777 16.2-28.637-1.04-59.41 2.2-76.742 12.137-17.332 9.937-27.13 29.364-27.13 50.227 0 8.51 1.521 15.961 4.565 22.354a44.892 44.892 0 0 0 12.738 16.07 54.712 54.712 0 0 0 19.419 9.687 89.98 89.98 0 0 0 24.619 3.2c12.455 0 23.459-1.562 33.012-4.686 9.551-3.118 24.331-13.4 26.213-14.9v5.481c0 5.431 1.653 10.275 8.134 10.275h33.466c6.774 0 8.28-4.844 8.28-10.805V129.442a127.372 127.372 0 0 0-1.271-19.158 60.18 60.18 0 0 0-4.04-14.698Zm-45.635 101.087s-8.642 17.951-39.484 17.951c-8.486 0-15.384-1.915-20.695-5.745-5.312-3.83-7.966-9.792-7.962-17.884 0-10.51 4.317-17.929 12.953-22.256 8.627-4.324 25.9-6.794 38.843-6.491 12.943.303 16.345 8.482 16.345 14.129v20.3-.004Z"/><linearGradient id="b" x1="0" x2="1" y1="0" y2="0" gradientTransform="matrix(-66.0999 399.226 -838.377 -138.81 671.585 69.405)" gradientUnits="userSpaceOnUse"><stop offset=".472" stop-color="#0CC"/><stop offset="1" stop-color="#39F"/></linearGradient></defs></svg>