<svg version="1.1" id="Layer_1" xmlns="http://www.w3.org/2000/svg" xmlns:xlink="http://www.w3.org/1999/xlink" x="0" y="0" viewBox="0 0 147 60" style="enable-background:new 0 0 147 60" xml:space="preserve"><style>.st0{fill:#fff}</style><path class="st0" d="M65.3 37.8c-1.1 0-2.1-.2-3-.5-.9-.3-1.7-.8-2.4-1.5s-1.2-1.5-1.6-2.5c-.4-1-.6-2.2-.6-3.5v-.6c0-1.2.2-2.3.6-3.3.4-.9 1-1.7 1.7-2.4s1.5-1.1 2.4-1.5c.9-.3 1.9-.5 2.9-.5 1.1 0 2 .1 2.9.4.8.3 1.5.7 2.1 1.2.6.5 1 1.1 1.4 1.8.3.7.5 1.4.6 2.2h-3.9c-.2-.7-.6-1.3-1-1.7-.5-.4-1.1-.6-2-.6-.5 0-1 .1-1.4.3-.4.2-.8.4-1.2.8-.3.4-.6.8-.8 1.4-.2.5-.3 1.2-.3 2v.6c0 .8.1 1.5.3 2.1.2.6.4 1.1.8 1.4.3.4.7.7 1.2.8.4.2.9.3 1.4.3.8 0 1.4-.2 2-.6.5-.4.9-1 1.1-1.7h3.9c-.1.9-.3 1.6-.7 2.3-.4.7-.9 1.3-1.5 1.8s-1.3.9-2.1 1.1c-.9.3-1.8.4-2.8.4M80.2 37.7c-.9 0-1.7-.1-2.3-.2-.6-.2-1.2-.5-1.6-.9-.4-.4-.7-1-.9-1.7-.2-.7-.3-1.6-.3-2.6V17H79v14.8c0 .5 0 .9.1 1.2.1.3.2.6.3.8.2.2.4.4.6.4.3.1.6.1 1 .1h1.1v3.2c-.1 0-.2 0-.4.1h-1.5zM86.8 20.3c-.7 0-1.3-.2-1.7-.6-.4-.4-.6-.9-.6-1.5s.2-1.1.6-1.5c.4-.4 1-.6 1.7-.6s1.3.2 1.7.6c.4.4.6.9.6 1.5s-.2 1.1-.6 1.5c-.4.4-.9.6-1.7.6M84.9 22h3.9v15.5h-3.9V22zM99.4 37.8c-1.1 0-2.1-.2-3-.5-.9-.3-1.7-.8-2.4-1.5s-1.2-1.5-1.6-2.5c-.4-1-.6-2.2-.6-3.5v-.6c0-1.2.2-2.3.6-3.3.4-.9 1-1.7 1.7-2.4s1.5-1.1 2.4-1.5c.9-.3 1.9-.5 2.9-.5 1.1 0 2 .1 2.9.4.8.3 1.5.7 2.1 1.2.6.5 1 1.1 1.4 1.8.3.7.5 1.4.6 2.2h-3.9c-.2-.7-.6-1.3-1-1.7-.5-.4-1.1-.6-2-.6-.5 0-1 .1-1.4.3-.4.2-.8.4-1.2.8-.3.4-.6.8-.8 1.4-.2.5-.3 1.2-.3 2v.6c0 .8.1 1.5.3 2.1.2.6.4 1.1.8 1.4.3.4.7.7 1.2.8.4.2.9.3 1.4.3.8 0 1.4-.2 2-.6.5-.4.9-1 1.1-1.7h3.9c-.1.9-.3 1.6-.7 2.3-.4.7-.9 1.3-1.5 1.8s-1.3.9-2.1 1.1c-.9.3-1.8.4-2.8.4M109.1 37.5V17h3.8v11.4l5.7-6.4h4.5l-5.8 6.5 6.4 9h-4.6l-4.4-6.3-1.8 1.9v4.4z"/><defs><path id="SVGID_1_" d="M16 37.9c-6.2-6.2-6.1-11.8 0-18 6.1-6.1 11.8-6.2 18 0 6.2 6.2 6.1 11.8 0 18-3.1 3.1-6 4.6-9 4.6-3 .1-5.9-1.5-9-4.6M8.5 12.5C2.9 18.1 0 23.5 0 28.9v.1c0 5.4 2.8 10.8 8.5 16.4 5.7 5.7 11.1 8.5 16.4 8.5h.1c5.4 0 10.8-2.9 16.4-8.5 11.3-11.3 11.4-21.6 0-33C35.8 6.8 30.4 4 25 4c-5.5 0-10.9 2.8-16.5 8.5z"/></defs><linearGradient id="SVGID_00000176750426446725934060000013305900202707229575_" gradientUnits="userSpaceOnUse" x1="8.037" y1="45.786" x2="41.426" y2="12.584"><stop offset="0" style="stop-color:#0073ff"/><stop offset="1" style="stop-color:#00deff"/></linearGradient><use xlink:href="#SVGID_1_" style="overflow:visible;fill-rule:evenodd;clip-rule:evenodd;fill:url(#SVGID_00000176750426446725934060000013305900202707229575_)"/><clipPath id="SVGID_00000080198922246146987400000008176210537419315634_"><use xlink:href="#SVGID_1_" style="overflow:visible"/></clipPath><linearGradient id="SVGID_00000017507835454521223830000006863595454104834733_" gradientUnits="userSpaceOnUse" x1="126.228" y1="21.729" x2="138.65" y2="5.633"><stop offset=".102" style="stop-color:#0073ff"/><stop offset="1" style="stop-color:#00deff"/></linearGradient><path style="fill:url(#SVGID_00000017507835454521223830000006863595454104834733_)" d="M129 22.1c-1.1 0-2-.3-2.6-1-.6-.7-.9-1.7-.9-3v-6h2.4v5.7c0 .7.2 1.3.5 1.7.3.4.8.6 1.5.6.4 0 .7-.1 1-.2.3-.1.5-.3.7-.5.2-.2.3-.4.4-.7.1-.3.1-.6.1-.9V12h2.4v9.8h-2.3v-1.5c-.2.5-.6.9-1.1 1.2-.6.4-1.3.6-2.1.6z"/><linearGradient id="SVGID_00000103953323523142896140000011812876908039198374_" gradientUnits="userSpaceOnUse" x1="132.82" y1="26.817" x2="145.243" y2="10.721"><stop offset="0" style="stop-color:#0073ff"/><stop offset="1" style="stop-color:#00deff"/></linearGradient><path style="fill:url(#SVGID_00000103953323523142896140000011812876908039198374_)" d="M136.6 25.5V12h2.3v1.5c.3-.5.7-.9 1.2-1.2.5-.3 1.2-.5 2-.5 1.3 0 2.4.4 3.1 1.2.7.8 1.1 2 1.1 3.6v.4c0 .8-.1 1.6-.3 2.2-.2.6-.5 1.2-.8 1.6-.4.4-.8.7-1.3.9-.5.2-1.1.3-1.7.3-.7 0-1.2-.1-1.8-.4-.5-.3-.9-.7-1.3-1.2v5.1h-2.5zm4.9-5.5c.3 0 .6-.1.9-.2.3-.1.5-.3.7-.6.2-.2.4-.6.5-.9.1-.4.2-.8.2-1.3v-.4c0-.5-.1-.9-.2-1.2-.1-.3-.3-.6-.5-.9-.2-.2-.4-.4-.7-.5-.3-.1-.6-.2-.9-.2-.3 0-.7.1-1 .2-.3.1-.6.3-.8.5-.2.2-.4.5-.5.8-.1.3-.2.6-.2 1v1.1c0 .4.1.8.2 1.1.1.3.3.6.5.8.2.2.5.4.8.5.3.1.6.2 1 .2z"/></svg>