<?xml version="1.0" encoding="utf-8"?>
<svg version="1.1" id="Layer_1" xmlns="http://www.w3.org/2000/svg" xmlns:xlink="http://www.w3.org/1999/xlink" x="0px" y="0px"
	 viewBox="0 0 147 60" style="enable-background:new 0 0 147 60;" xml:space="preserve">
<style type="text/css">
	.st0{fill:#FFFFFF;}
	.st1{fill:url(#SVGID_00000016758846075575613090000005366835709190257335_);}
	.st2{fill:url(#SVGID_00000109710613559855668790000015345651835077413811_);}
</style>
<g>
	<path class="st0" d="M65.3,37.8c-1.1,0-2.1-0.2-3-0.5c-0.9-0.3-1.7-0.8-2.4-1.5c-0.7-0.7-1.2-1.5-1.6-2.5c-0.4-1-0.6-2.2-0.6-3.5
		v-0.6c0-1.2,0.2-2.3,0.6-3.3c0.4-0.9,1-1.7,1.7-2.4c0.7-0.7,1.5-1.1,2.4-1.5c0.9-0.3,1.9-0.5,2.9-0.5c1.1,0,2,0.1,2.9,0.4
		c0.8,0.3,1.5,0.7,2.1,1.2c0.6,0.5,1,1.1,1.4,1.8c0.3,0.7,0.5,1.4,0.6,2.2h-3.9c-0.2-0.7-0.6-1.3-1-1.7c-0.5-0.4-1.1-0.6-2-0.6
		c-0.5,0-1,0.1-1.4,0.3c-0.4,0.2-0.8,0.4-1.2,0.8c-0.3,0.4-0.6,0.8-0.8,1.4c-0.2,0.5-0.3,1.2-0.3,2v0.6c0,0.8,0.1,1.5,0.3,2.1
		c0.2,0.6,0.4,1.1,0.8,1.4c0.3,0.4,0.7,0.7,1.2,0.8c0.4,0.2,0.9,0.3,1.4,0.3c0.8,0,1.4-0.2,2-0.6c0.5-0.4,0.9-1,1.1-1.7h3.9
		c-0.1,0.9-0.3,1.6-0.7,2.3c-0.4,0.7-0.9,1.3-1.5,1.8c-0.6,0.5-1.3,0.9-2.1,1.1C67.2,37.7,66.3,37.8,65.3,37.8"/>
	<path class="st0" d="M80.2,37.7c-0.9,0-1.7-0.1-2.3-0.2c-0.6-0.2-1.2-0.5-1.6-0.9c-0.4-0.4-0.7-1-0.9-1.7c-0.2-0.7-0.3-1.6-0.3-2.6
		V17H79v14.8c0,0.5,0,0.9,0.1,1.2c0.1,0.3,0.2,0.6,0.3,0.8c0.2,0.2,0.4,0.4,0.6,0.4c0.3,0.1,0.6,0.1,1,0.1c0.2,0,0.4,0,0.6,0
		c0.2,0,0.3,0,0.5,0v3.2c-0.1,0-0.2,0-0.4,0.1c-0.1,0-0.3,0-0.5,0c-0.2,0-0.3,0-0.5,0H80.2z"/>
	<path class="st0" d="M86.8,20.3c-0.7,0-1.3-0.2-1.7-0.6c-0.4-0.4-0.6-0.9-0.6-1.5c0-0.6,0.2-1.1,0.6-1.5c0.4-0.4,1-0.6,1.7-0.6
		c0.7,0,1.3,0.2,1.7,0.6c0.4,0.4,0.6,0.9,0.6,1.5c0,0.6-0.2,1.1-0.6,1.5C88.1,20.1,87.6,20.3,86.8,20.3 M84.9,22h3.9v15.5h-3.9V22z"
		/>
	<path class="st0" d="M99.4,37.8c-1.1,0-2.1-0.2-3-0.5c-0.9-0.3-1.7-0.8-2.4-1.5c-0.7-0.7-1.2-1.5-1.6-2.5c-0.4-1-0.6-2.2-0.6-3.5
		v-0.6c0-1.2,0.2-2.3,0.6-3.3c0.4-0.9,1-1.7,1.7-2.4c0.7-0.7,1.5-1.1,2.4-1.5c0.9-0.3,1.9-0.5,2.9-0.5c1.1,0,2,0.1,2.9,0.4
		c0.8,0.3,1.5,0.7,2.1,1.2c0.6,0.5,1,1.1,1.4,1.8c0.3,0.7,0.5,1.4,0.6,2.2h-3.9c-0.2-0.7-0.6-1.3-1-1.7c-0.5-0.4-1.1-0.6-2-0.6
		c-0.5,0-1,0.1-1.4,0.3c-0.4,0.2-0.8,0.4-1.2,0.8c-0.3,0.4-0.6,0.8-0.8,1.4c-0.2,0.5-0.3,1.2-0.3,2v0.6c0,0.8,0.1,1.5,0.3,2.1
		c0.2,0.6,0.4,1.1,0.8,1.4c0.3,0.4,0.7,0.7,1.2,0.8c0.4,0.2,0.9,0.3,1.4,0.3c0.8,0,1.4-0.2,2-0.6c0.5-0.4,0.9-1,1.1-1.7h3.9
		c-0.1,0.9-0.3,1.6-0.7,2.3c-0.4,0.7-0.9,1.3-1.5,1.8c-0.6,0.5-1.3,0.9-2.1,1.1C101.3,37.7,100.4,37.8,99.4,37.8"/>
	<polygon class="st0" points="109.1,37.5 109.1,17 112.9,17 112.9,28.4 118.6,22 123.1,22 117.3,28.5 123.7,37.5 119.1,37.5 
		114.7,31.2 112.9,33.1 112.9,37.5 	"/>
	<g>
		<defs>
			<path id="SVGID_1_" d="M16,37.9c-6.2-6.2-6.1-11.8,0-18c6.1-6.1,11.8-6.2,18,0c6.2,6.2,6.1,11.8,0,18c-3.1,3.1-6,4.6-9,4.6
				C22,42.6,19.1,41,16,37.9 M8.5,12.5C2.9,18.1,0,23.5,0,28.9V29c0,5.4,2.8,10.8,8.5,16.4c5.7,5.7,11.1,8.5,16.4,8.5H25
				c5.4,0,10.8-2.9,16.4-8.5c11.3-11.3,11.4-21.6,0-33C35.8,6.8,30.4,4,25,4C19.5,4,14.1,6.8,8.5,12.5z"/>
		</defs>
		
			<linearGradient id="SVGID_00000176750426446725934060000013305900202707229575_" gradientUnits="userSpaceOnUse" x1="8.037" y1="45.7857" x2="41.426" y2="12.5843">
			<stop  offset="0" style="stop-color:#0073FF"/>
			<stop  offset="1" style="stop-color:#00DEFF"/>
		</linearGradient>
		
			<use xlink:href="#SVGID_1_"  style="overflow:visible;fill-rule:evenodd;clip-rule:evenodd;fill:url(#SVGID_00000176750426446725934060000013305900202707229575_);"/>
		<clipPath id="SVGID_00000080198922246146987400000008176210537419315634_">
			<use xlink:href="#SVGID_1_"  style="overflow:visible;"/>
		</clipPath>
	</g>
</g>
<g>
	
		<linearGradient id="SVGID_00000017507835454521223830000006863595454104834733_" gradientUnits="userSpaceOnUse" x1="126.2275" y1="21.7287" x2="138.6499" y2="5.6328">
		<stop  offset="0.1022" style="stop-color:#0073FF"/>
		<stop  offset="1" style="stop-color:#00DEFF"/>
	</linearGradient>
	<path style="fill:url(#SVGID_00000017507835454521223830000006863595454104834733_);" d="M129,22.1c-1.1,0-2-0.3-2.6-1
		c-0.6-0.7-0.9-1.7-0.9-3v-6h2.4v5.7c0,0.7,0.2,1.3,0.5,1.7c0.3,0.4,0.8,0.6,1.5,0.6c0.4,0,0.7-0.1,1-0.2c0.3-0.1,0.5-0.3,0.7-0.5
		c0.2-0.2,0.3-0.4,0.4-0.7c0.1-0.3,0.1-0.6,0.1-0.9V12h2.4v9.8h-2.3v-1.5c-0.2,0.5-0.6,0.9-1.1,1.2C130.5,21.9,129.8,22.1,129,22.1z
		"/>
	
		<linearGradient id="SVGID_00000103953323523142896140000011812876908039198374_" gradientUnits="userSpaceOnUse" x1="132.8202" y1="26.8167" x2="145.2425" y2="10.7208">
		<stop  offset="0" style="stop-color:#0073FF"/>
		<stop  offset="1" style="stop-color:#00DEFF"/>
	</linearGradient>
	<path style="fill:url(#SVGID_00000103953323523142896140000011812876908039198374_);" d="M136.6,25.5V12h2.3v1.5
		c0.3-0.5,0.7-0.9,1.2-1.2c0.5-0.3,1.2-0.5,2-0.5c1.3,0,2.4,0.4,3.1,1.2c0.7,0.8,1.1,2,1.1,3.6V17c0,0.8-0.1,1.6-0.3,2.2
		c-0.2,0.6-0.5,1.2-0.8,1.6c-0.4,0.4-0.8,0.7-1.3,0.9c-0.5,0.2-1.1,0.3-1.7,0.3c-0.7,0-1.2-0.1-1.8-0.4c-0.5-0.3-0.9-0.7-1.3-1.2
		v5.1H136.6z M141.5,20c0.3,0,0.6-0.1,0.9-0.2c0.3-0.1,0.5-0.3,0.7-0.6c0.2-0.2,0.4-0.6,0.5-0.9c0.1-0.4,0.2-0.8,0.2-1.3v-0.4
		c0-0.5-0.1-0.9-0.2-1.2c-0.1-0.3-0.3-0.6-0.5-0.9c-0.2-0.2-0.4-0.4-0.7-0.5c-0.3-0.1-0.6-0.2-0.9-0.2c-0.3,0-0.7,0.1-1,0.2
		c-0.3,0.1-0.6,0.3-0.8,0.5c-0.2,0.2-0.4,0.5-0.5,0.8c-0.1,0.3-0.2,0.6-0.2,1v1.1c0,0.4,0.1,0.8,0.2,1.1c0.1,0.3,0.3,0.6,0.5,0.8
		c0.2,0.2,0.5,0.4,0.8,0.5C140.8,19.9,141.1,20,141.5,20z"/>
</g>
</svg>
